<svg xmlns="http://www.w3.org/2000/svg" viewBox="0 0 48 48" width="48" height="48">
  <!-- Bug: oval body + head + legs + antennae -->
  <ellipse cx="24" cy="28" rx="10" ry="12" fill="#CC5DE8"/>
  <circle cx="24" cy="14" r="6" fill="#CC5DE8"/>
  <!-- Eyes -->
  <circle cx="21" cy="13" r="2" fill="#1A1A1A"/>
  <circle cx="27" cy="13" r="2" fill="#1A1A1A"/>
  <!-- Legs -->
  <rect x="8" y="22" width="8" height="3" rx="1.5" transform="rotate(-20 12 23.5)" fill="#B04CC8"/>
  <rect x="32" y="22" width="8" height="3" rx="1.5" transform="rotate(20 36 23.5)" fill="#B04CC8"/>
  <rect x="6" y="28" width="9" height="3" rx="1.5" fill="#B04CC8"/>
  <rect x="33" y="28" width="9" height="3" rx="1.5" fill="#B04CC8"/>
  <rect x="8" y="34" width="8" height="3" rx="1.5" transform="rotate(20 12 35.5)" fill="#B04CC8"/>
  <rect x="32" y="34" width="8" height="3" rx="1.5" transform="rotate(-20 36 35.5)" fill="#B04CC8"/>
  <!-- Antennae -->
  <rect x="18" y="4" width="2.5" height="8" rx="1.25" transform="rotate(15 19.25 8)" fill="#B04CC8"/>
  <rect x="27.5" y="4" width="2.5" height="8" rx="1.25" transform="rotate(-15 28.75 8)" fill="#B04CC8"/>
  <!-- Body segment line -->
  <rect x="15" y="27" width="18" height="2" rx="1" fill="#B04CC8"/>
</svg>
